# Blender v2.69 (sub 0) OBJ File: ''
# www.blender.org
mtllib rooklow.mtl
o Cube.001
v 0.955888 -0.001808 -0.938732
v 0.955888 -0.001808 0.925037
v -1.018234 -0.001808 0.925036
v -1.018234 -0.001808 -0.938732
v 0.955888 4.388817 -0.938731
v -1.018234 4.388817 -0.938731
v -1.018234 4.388817 0.925037
v 0.955887 4.388817 0.925038
vt 0.919910 -0.024171
vt 0.919910 -0.961528
vt -0.017448 -0.961528
vt -0.017447 -0.024170
vt 0.000372 0.063312
vt 0.000372 1.000669
vt -0.936985 1.000669
vt -0.936985 0.063312
vt 0.919910 0.063312
vt 0.919910 1.000669
vt -0.017448 1.000669
vt -0.017448 0.063312
vt 0.937730 1.000669
vt 0.937730 0.063312
vt 0.919910 0.063311
vt 0.919910 -0.874046
vt -0.017447 -0.874046
vt -0.017447 0.063311
vn 0.577349 -0.577349 -0.577349
vn 0.577349 -0.577349 0.577349
vn -0.577349 -0.577349 0.577349
vn -0.577349 -0.577349 -0.577349
vn 0.577349 0.577349 -0.577349
vn -0.577349 0.577349 -0.577349
vn -0.577349 0.577349 0.577349
vn 0.577349 0.577349 0.577349
usemtl Material.001
s 1
f 1/1/1 2/2/2 3/3/3 4/4/4
f 5/1/5 6/4/6 7/3/7 8/2/8
f 1/5/1 5/6/5 8/7/8 2/8/2
f 2/9/2 8/10/8 7/11/7 3/12/3
f 3/5/3 7/6/7 6/13/6 4/14/4
f 5/15/5 1/16/1 4/17/4 6/18/6
